<?xml version="1.0" encoding="UTF-8" standalone="no"?>
<!DOCTYPE svg PUBLIC "-//W3C//DTD SVG 1.1//EN"
 "http://www.w3.org/Graphics/SVG/1.1/DTD/svg11.dtd">
<!-- Generated by graphviz version 2.26.3 (20100126.1600)
 -->
<!-- Title: HAL Diagram Pages: 1 -->
<svg width="874pt" height="747pt"
 viewBox="0.00 0.00 874.00 747.00" xmlns="http://www.w3.org/2000/svg" xmlns:xlink="http://www.w3.org/1999/xlink">
<g id="graph1" class="graph" transform="scale(1 1) rotate(0) translate(4 743)">
<title>HAL Diagram</title>
<polygon fill="white" stroke="white" points="-4,5 -4,-743 871,-743 871,5 -4,5"/>
<g id="graph2" class="cluster"><title>cluster_stepgen.0</title>
<polyline fill="none" stroke="black" points="678,-62 846,-62 "/>
<path fill="none" stroke="black" d="M846,-62C852,-62 858,-68 858,-74"/>
<polyline fill="none" stroke="black" points="858,-74 858,-235 "/>
<path fill="none" stroke="black" d="M858,-235C858,-241 852,-247 846,-247"/>
<polyline fill="none" stroke="black" points="846,-247 678,-247 "/>
<path fill="none" stroke="black" d="M678,-247C672,-247 666,-241 666,-235"/>
<polyline fill="none" stroke="black" points="666,-235 666,-74 "/>
<path fill="none" stroke="black" d="M666,-74C666,-68 672,-62 678,-62"/>
<text text-anchor="middle" x="762" y="-230.4" font-family="Times Roman,serif" font-size="14.00">stepgen.0</text>
</g>
<g id="graph3" class="cluster"><title>cluster_iocontrol.0</title>
<polyline fill="none" stroke="black" points="20,-204 216,-204 "/>
<path fill="none" stroke="black" d="M216,-204C222,-204 228,-210 228,-216"/>
<polyline fill="none" stroke="black" points="228,-216 228,-323 "/>
<path fill="none" stroke="black" d="M228,-323C228,-329 222,-335 216,-335"/>
<polyline fill="none" stroke="black" points="216,-335 20,-335 "/>
<path fill="none" stroke="black" d="M20,-335C14,-335 8,-329 8,-323"/>
<polyline fill="none" stroke="black" points="8,-323 8,-216 "/>
<path fill="none" stroke="black" d="M8,-216C8,-210 14,-204 20,-204"/>
<text text-anchor="middle" x="118" y="-318.4" font-family="Times Roman,serif" font-size="14.00">iocontrol.0</text>
</g>
<g id="graph4" class="cluster"><title>cluster_stepgen.2</title>
<polyline fill="none" stroke="black" points="678,-339 846,-339 "/>
<path fill="none" stroke="black" d="M846,-339C852,-339 858,-345 858,-351"/>
<polyline fill="none" stroke="black" points="858,-351 858,-512 "/>
<path fill="none" stroke="black" d="M858,-512C858,-518 852,-524 846,-524"/>
<polyline fill="none" stroke="black" points="846,-524 678,-524 "/>
<path fill="none" stroke="black" d="M678,-524C672,-524 666,-518 666,-512"/>
<polyline fill="none" stroke="black" points="666,-512 666,-351 "/>
<path fill="none" stroke="black" d="M666,-351C666,-345 672,-339 678,-339"/>
<text text-anchor="middle" x="762" y="-507.4" font-family="Times Roman,serif" font-size="14.00">stepgen.2</text>
</g>
<g id="graph5" class="cluster"><title>cluster_axis.1</title>
<polyline fill="none" stroke="black" points="37,-546 199,-546 "/>
<path fill="none" stroke="black" d="M199,-546C205,-546 211,-552 211,-558"/>
<polyline fill="none" stroke="black" points="211,-558 211,-719 "/>
<path fill="none" stroke="black" d="M211,-719C211,-725 205,-731 199,-731"/>
<polyline fill="none" stroke="black" points="199,-731 37,-731 "/>
<path fill="none" stroke="black" d="M37,-731C31,-731 25,-725 25,-719"/>
<polyline fill="none" stroke="black" points="25,-719 25,-558 "/>
<path fill="none" stroke="black" d="M25,-558C25,-552 31,-546 37,-546"/>
<text text-anchor="middle" x="118" y="-714.4" font-family="Times Roman,serif" font-size="14.00">axis.1</text>
</g>
<g id="graph6" class="cluster"><title>cluster_axis.0</title>
<polyline fill="none" stroke="black" points="260,-8 422,-8 "/>
<path fill="none" stroke="black" d="M422,-8C428,-8 434,-14 434,-20"/>
<polyline fill="none" stroke="black" points="434,-20 434,-181 "/>
<path fill="none" stroke="black" d="M434,-181C434,-187 428,-193 422,-193"/>
<polyline fill="none" stroke="black" points="422,-193 260,-193 "/>
<path fill="none" stroke="black" d="M260,-193C254,-193 248,-187 248,-181"/>
<polyline fill="none" stroke="black" points="248,-181 248,-20 "/>
<path fill="none" stroke="black" d="M248,-20C248,-14 254,-8 260,-8"/>
<text text-anchor="middle" x="341" y="-176.4" font-family="Times Roman,serif" font-size="14.00">axis.0</text>
</g>
<g id="graph7" class="cluster"><title>cluster_axis.2</title>
<polyline fill="none" stroke="black" points="260,-285 422,-285 "/>
<path fill="none" stroke="black" d="M422,-285C428,-285 434,-291 434,-297"/>
<polyline fill="none" stroke="black" points="434,-297 434,-458 "/>
<path fill="none" stroke="black" d="M434,-458C434,-464 428,-470 422,-470"/>
<polyline fill="none" stroke="black" points="422,-470 260,-470 "/>
<path fill="none" stroke="black" d="M260,-470C254,-470 248,-464 248,-458"/>
<polyline fill="none" stroke="black" points="248,-458 248,-297 "/>
<path fill="none" stroke="black" d="M248,-297C248,-291 254,-285 260,-285"/>
<text text-anchor="middle" x="341" y="-453.4" font-family="Times Roman,serif" font-size="14.00">axis.2</text>
</g>
<g id="graph8" class="cluster"><title>cluster_stepgen.1</title>
<polyline fill="none" stroke="black" points="466,-546 634,-546 "/>
<path fill="none" stroke="black" d="M634,-546C640,-546 646,-552 646,-558"/>
<polyline fill="none" stroke="black" points="646,-558 646,-719 "/>
<path fill="none" stroke="black" d="M646,-719C646,-725 640,-731 634,-731"/>
<polyline fill="none" stroke="black" points="634,-731 466,-731 "/>
<path fill="none" stroke="black" d="M466,-731C460,-731 454,-725 454,-719"/>
<polyline fill="none" stroke="black" points="454,-719 454,-558 "/>
<path fill="none" stroke="black" d="M454,-558C454,-552 460,-546 466,-546"/>
<text text-anchor="middle" x="550" y="-714.4" font-family="Times Roman,serif" font-size="14.00">stepgen.1</text>
</g>
<!-- stepgen.0.enable -->
<g id="node2" class="node"><title>stepgen.0.enable</title>
<polygon fill="lightgrey" stroke="lightgrey" points="829,-160 695,-160 695,-124 829,-124 829,-160"/>
<text text-anchor="middle" x="762" y="-137.9" font-family="Times Roman,serif" font-size="14.00">stepgen.0.enable</text>
</g>
<!-- stepgen.0.position&#45;cmd -->
<g id="node3" class="node"><title>stepgen.0.position&#45;cmd</title>
<polygon fill="lightgrey" stroke="lightgrey" points="850,-106 674,-106 674,-70 850,-70 850,-106"/>
<text text-anchor="middle" x="762" y="-83.9" font-family="Times Roman,serif" font-size="14.00">stepgen.0.position&#45;cmd</text>
</g>
<!-- stepgen.0.position&#45;fb -->
<g id="node4" class="node"><title>stepgen.0.position&#45;fb</title>
<polygon fill="lightgrey" stroke="lightgrey" points="842,-214 682,-214 682,-178 842,-178 842,-214"/>
<text text-anchor="middle" x="762" y="-191.9" font-family="Times Roman,serif" font-size="14.00">stepgen.0.position&#45;fb</text>
</g>
<!-- xpos&#45;fb -->
<g id="node32" class="node"><title>xpos&#45;fb</title>
<polygon fill="none" stroke="black" stroke-dasharray="1,5" points="163,-123 73,-123 73,-87 163,-87 163,-123"/>
<text text-anchor="middle" x="118" y="-100.9" font-family="Times Roman,serif" font-size="14.00">xpos&#45;fb (0)</text>
</g>
<!-- stepgen.0.position&#45;fb&#45;&gt;xpos&#45;fb -->
<g id="edge33" class="edge"><title>stepgen.0.position&#45;fb&#45;&gt;xpos&#45;fb</title>
<path fill="none" stroke="darkblue" d="M681.338,-211.003C578.13,-226.884 395.117,-243.791 248,-197 206.868,-183.918 167.56,-152.581 143.147,-130.117"/>
<polygon fill="darkblue" stroke="darkblue" points="145.442,-127.471 135.76,-123.17 140.646,-132.57 145.442,-127.471"/>
</g>
<!-- iocontrol.0.emc&#45;enable&#45;in -->
<g id="node6" class="node"><title>iocontrol.0.emc&#45;enable&#45;in</title>
<polygon fill="lightgrey" stroke="lightgrey" points="213,-302 23,-302 23,-266 213,-266 213,-302"/>
<text text-anchor="middle" x="118" y="-279.9" font-family="Times Roman,serif" font-size="14.00">iocontrol.0.emc&#45;enable&#45;in</text>
</g>
<!-- iocontrol.0.user&#45;enable&#45;out -->
<g id="node7" class="node"><title>iocontrol.0.user&#45;enable&#45;out</title>
<polygon fill="lightgrey" stroke="lightgrey" points="219,-248 17,-248 17,-212 219,-212 219,-248"/>
<text text-anchor="middle" x="118" y="-225.9" font-family="Times Roman,serif" font-size="14.00">iocontrol.0.user&#45;enable&#45;out</text>
</g>
<!-- estop&#45;loop -->
<g id="node46" class="node"><title>estop&#45;loop</title>
<polygon fill="none" stroke="black" stroke-dasharray="1,5" points="411,-275 271,-275 271,-239 411,-239 411,-275"/>
<text text-anchor="middle" x="341" y="-252.9" font-family="Times Roman,serif" font-size="14.00">estop&#45;loop (TRUE)</text>
</g>
<!-- iocontrol.0.user&#45;enable&#45;out&#45;&gt;estop&#45;loop -->
<g id="edge35" class="edge"><title>iocontrol.0.user&#45;enable&#45;out&#45;&gt;estop&#45;loop</title>
<path fill="none" stroke="darkblue" d="M219.711,-242.315C233.351,-243.966 247.187,-245.641 260.395,-247.241"/>
<polygon fill="darkblue" stroke="darkblue" points="260.011,-250.72 270.359,-248.447 260.852,-243.77 260.011,-250.72"/>
</g>
<!-- stepgen.2.enable -->
<g id="node9" class="node"><title>stepgen.2.enable</title>
<polygon fill="lightgrey" stroke="lightgrey" points="829,-437 695,-437 695,-401 829,-401 829,-437"/>
<text text-anchor="middle" x="762" y="-414.9" font-family="Times Roman,serif" font-size="14.00">stepgen.2.enable</text>
</g>
<!-- stepgen.2.position&#45;cmd -->
<g id="node10" class="node"><title>stepgen.2.position&#45;cmd</title>
<polygon fill="lightgrey" stroke="lightgrey" points="850,-383 674,-383 674,-347 850,-347 850,-383"/>
<text text-anchor="middle" x="762" y="-360.9" font-family="Times Roman,serif" font-size="14.00">stepgen.2.position&#45;cmd</text>
</g>
<!-- stepgen.2.position&#45;fb -->
<g id="node11" class="node"><title>stepgen.2.position&#45;fb</title>
<polygon fill="lightgrey" stroke="lightgrey" points="842,-491 682,-491 682,-455 842,-455 842,-491"/>
<text text-anchor="middle" x="762" y="-468.9" font-family="Times Roman,serif" font-size="14.00">stepgen.2.position&#45;fb</text>
</g>
<!-- zpos&#45;fb -->
<g id="node44" class="node"><title>zpos&#45;fb</title>
<polygon fill="none" stroke="black" stroke-dasharray="1,5" points="163,-429 73,-429 73,-393 163,-393 163,-429"/>
<text text-anchor="middle" x="118" y="-406.9" font-family="Times Roman,serif" font-size="14.00">zpos&#45;fb (0)</text>
</g>
<!-- stepgen.2.position&#45;fb&#45;&gt;zpos&#45;fb -->
<g id="edge29" class="edge"><title>stepgen.2.position&#45;fb&#45;&gt;zpos&#45;fb</title>
<path fill="none" stroke="darkblue" d="M681.061,-484.292C578.725,-496.047 397.813,-508.388 248,-474 214.691,-466.354 180.009,-448.998 154.853,-434.435"/>
<polygon fill="darkblue" stroke="darkblue" points="156.425,-431.299 146.036,-429.22 152.861,-437.324 156.425,-431.299"/>
</g>
<!-- axis.1.amp&#45;enable&#45;out -->
<g id="node13" class="node"><title>axis.1.amp&#45;enable&#45;out</title>
<polygon fill="lightgrey" stroke="lightgrey" points="203,-698 33,-698 33,-662 203,-662 203,-698"/>
<text text-anchor="middle" x="118" y="-675.9" font-family="Times Roman,serif" font-size="14.00">axis.1.amp&#45;enable&#45;out</text>
</g>
<!-- yenable -->
<g id="node34" class="node"><title>yenable</title>
<polygon fill="none" stroke="black" stroke-dasharray="1,5" points="403,-698 279,-698 279,-662 403,-662 403,-698"/>
<text text-anchor="middle" x="341" y="-675.9" font-family="Times Roman,serif" font-size="14.00">yenable (TRUE)</text>
</g>
<!-- axis.1.amp&#45;enable&#45;out&#45;&gt;yenable -->
<g id="edge41" class="edge"><title>axis.1.amp&#45;enable&#45;out&#45;&gt;yenable</title>
<path fill="none" stroke="darkblue" d="M203.261,-680C224.817,-680 247.76,-680 268.613,-680"/>
<polygon fill="darkblue" stroke="darkblue" points="268.667,-683.5 278.667,-680 268.667,-676.5 268.667,-683.5"/>
</g>
<!-- axis.1.motor&#45;pos&#45;cmd -->
<g id="node14" class="node"><title>axis.1.motor&#45;pos&#45;cmd</title>
<polygon fill="lightgrey" stroke="lightgrey" points="200,-644 36,-644 36,-608 200,-608 200,-644"/>
<text text-anchor="middle" x="118" y="-621.9" font-family="Times Roman,serif" font-size="14.00">axis.1.motor&#45;pos&#45;cmd</text>
</g>
<!-- ypos&#45;cmd -->
<g id="node36" class="node"><title>ypos&#45;cmd</title>
<polygon fill="none" stroke="black" stroke-dasharray="1,5" points="393,-644 289,-644 289,-608 393,-608 393,-644"/>
<text text-anchor="middle" x="341" y="-621.9" font-family="Times Roman,serif" font-size="14.00">ypos&#45;cmd (0)</text>
</g>
<!-- axis.1.motor&#45;pos&#45;cmd&#45;&gt;ypos&#45;cmd -->
<g id="edge43" class="edge"><title>axis.1.motor&#45;pos&#45;cmd&#45;&gt;ypos&#45;cmd</title>
<path fill="none" stroke="darkblue" d="M200.087,-626C225.841,-626 253.849,-626 278.061,-626"/>
<polygon fill="darkblue" stroke="darkblue" points="278.187,-629.5 288.187,-626 278.187,-622.5 278.187,-629.5"/>
</g>
<!-- axis.1.motor&#45;pos&#45;fb -->
<g id="node15" class="node"><title>axis.1.motor&#45;pos&#45;fb</title>
<polygon fill="lightgrey" stroke="lightgrey" points="192,-590 44,-590 44,-554 192,-554 192,-590"/>
<text text-anchor="middle" x="118" y="-567.9" font-family="Times Roman,serif" font-size="14.00">axis.1.motor&#45;pos&#45;fb</text>
</g>
<!-- axis.0.amp&#45;enable&#45;out -->
<g id="node17" class="node"><title>axis.0.amp&#45;enable&#45;out</title>
<polygon fill="lightgrey" stroke="lightgrey" points="426,-160 256,-160 256,-124 426,-124 426,-160"/>
<text text-anchor="middle" x="341" y="-137.9" font-family="Times Roman,serif" font-size="14.00">axis.0.amp&#45;enable&#45;out</text>
</g>
<!-- xenable -->
<g id="node28" class="node"><title>xenable</title>
<polygon fill="none" stroke="black" stroke-dasharray="1,5" points="611,-160 489,-160 489,-124 611,-124 611,-160"/>
<text text-anchor="middle" x="550" y="-137.9" font-family="Times Roman,serif" font-size="14.00">xenable (TRUE)</text>
</g>
<!-- axis.0.amp&#45;enable&#45;out&#45;&gt;xenable -->
<g id="edge45" class="edge"><title>axis.0.amp&#45;enable&#45;out&#45;&gt;xenable</title>
<path fill="none" stroke="darkblue" d="M426.008,-142C443.322,-142 461.376,-142 478.177,-142"/>
<polygon fill="darkblue" stroke="darkblue" points="478.459,-145.5 488.459,-142 478.459,-138.5 478.459,-145.5"/>
</g>
<!-- axis.0.motor&#45;pos&#45;cmd -->
<g id="node18" class="node"><title>axis.0.motor&#45;pos&#45;cmd</title>
<polygon fill="lightgrey" stroke="lightgrey" points="423,-106 259,-106 259,-70 423,-70 423,-106"/>
<text text-anchor="middle" x="341" y="-83.9" font-family="Times Roman,serif" font-size="14.00">axis.0.motor&#45;pos&#45;cmd</text>
</g>
<!-- xpos&#45;cmd -->
<g id="node30" class="node"><title>xpos&#45;cmd</title>
<polygon fill="none" stroke="black" stroke-dasharray="1,5" points="602,-106 498,-106 498,-70 602,-70 602,-106"/>
<text text-anchor="middle" x="550" y="-83.9" font-family="Times Roman,serif" font-size="14.00">xpos&#45;cmd (0)</text>
</g>
<!-- axis.0.motor&#45;pos&#45;cmd&#45;&gt;xpos&#45;cmd -->
<g id="edge47" class="edge"><title>axis.0.motor&#45;pos&#45;cmd&#45;&gt;xpos&#45;cmd</title>
<path fill="none" stroke="darkblue" d="M423.002,-88C444.428,-88 467.177,-88 487.414,-88"/>
<polygon fill="darkblue" stroke="darkblue" points="487.437,-91.5001 497.437,-88 487.436,-84.5001 487.437,-91.5001"/>
</g>
<!-- axis.0.motor&#45;pos&#45;fb -->
<g id="node19" class="node"><title>axis.0.motor&#45;pos&#45;fb</title>
<polygon fill="lightgrey" stroke="lightgrey" points="415,-52 267,-52 267,-16 415,-16 415,-52"/>
<text text-anchor="middle" x="341" y="-29.9" font-family="Times Roman,serif" font-size="14.00">axis.0.motor&#45;pos&#45;fb</text>
</g>
<!-- axis.2.amp&#45;enable&#45;out -->
<g id="node21" class="node"><title>axis.2.amp&#45;enable&#45;out</title>
<polygon fill="lightgrey" stroke="lightgrey" points="426,-437 256,-437 256,-401 426,-401 426,-437"/>
<text text-anchor="middle" x="341" y="-414.9" font-family="Times Roman,serif" font-size="14.00">axis.2.amp&#45;enable&#45;out</text>
</g>
<!-- zenable -->
<g id="node40" class="node"><title>zenable</title>
<polygon fill="none" stroke="black" stroke-dasharray="1,5" points="612,-437 488,-437 488,-401 612,-401 612,-437"/>
<text text-anchor="middle" x="550" y="-414.9" font-family="Times Roman,serif" font-size="14.00">zenable (TRUE)</text>
</g>
<!-- axis.2.amp&#45;enable&#45;out&#45;&gt;zenable -->
<g id="edge37" class="edge"><title>axis.2.amp&#45;enable&#45;out&#45;&gt;zenable</title>
<path fill="none" stroke="darkblue" d="M426.008,-419C443.135,-419 460.986,-419 477.632,-419"/>
<polygon fill="darkblue" stroke="darkblue" points="477.824,-422.5 487.824,-419 477.824,-415.5 477.824,-422.5"/>
</g>
<!-- axis.2.motor&#45;pos&#45;cmd -->
<g id="node22" class="node"><title>axis.2.motor&#45;pos&#45;cmd</title>
<polygon fill="lightgrey" stroke="lightgrey" points="423,-383 259,-383 259,-347 423,-347 423,-383"/>
<text text-anchor="middle" x="341" y="-360.9" font-family="Times Roman,serif" font-size="14.00">axis.2.motor&#45;pos&#45;cmd</text>
</g>
<!-- zpos&#45;cmd -->
<g id="node42" class="node"><title>zpos&#45;cmd</title>
<polygon fill="none" stroke="black" stroke-dasharray="1,5" points="602,-383 498,-383 498,-347 602,-347 602,-383"/>
<text text-anchor="middle" x="550" y="-360.9" font-family="Times Roman,serif" font-size="14.00">zpos&#45;cmd (0)</text>
</g>
<!-- axis.2.motor&#45;pos&#45;cmd&#45;&gt;zpos&#45;cmd -->
<g id="edge39" class="edge"><title>axis.2.motor&#45;pos&#45;cmd&#45;&gt;zpos&#45;cmd</title>
<path fill="none" stroke="darkblue" d="M423.002,-365C444.428,-365 467.177,-365 487.414,-365"/>
<polygon fill="darkblue" stroke="darkblue" points="487.437,-368.5 497.437,-365 487.436,-361.5 487.437,-368.5"/>
</g>
<!-- axis.2.motor&#45;pos&#45;fb -->
<g id="node23" class="node"><title>axis.2.motor&#45;pos&#45;fb</title>
<polygon fill="lightgrey" stroke="lightgrey" points="415,-329 267,-329 267,-293 415,-293 415,-329"/>
<text text-anchor="middle" x="341" y="-306.9" font-family="Times Roman,serif" font-size="14.00">axis.2.motor&#45;pos&#45;fb</text>
</g>
<!-- stepgen.1.enable -->
<g id="node25" class="node"><title>stepgen.1.enable</title>
<polygon fill="lightgrey" stroke="lightgrey" points="617,-698 483,-698 483,-662 617,-662 617,-698"/>
<text text-anchor="middle" x="550" y="-675.9" font-family="Times Roman,serif" font-size="14.00">stepgen.1.enable</text>
</g>
<!-- stepgen.1.position&#45;cmd -->
<g id="node26" class="node"><title>stepgen.1.position&#45;cmd</title>
<polygon fill="lightgrey" stroke="lightgrey" points="638,-644 462,-644 462,-608 638,-608 638,-644"/>
<text text-anchor="middle" x="550" y="-621.9" font-family="Times Roman,serif" font-size="14.00">stepgen.1.position&#45;cmd</text>
</g>
<!-- stepgen.1.position&#45;fb -->
<g id="node27" class="node"><title>stepgen.1.position&#45;fb</title>
<polygon fill="lightgrey" stroke="lightgrey" points="630,-590 470,-590 470,-554 630,-554 630,-590"/>
<text text-anchor="middle" x="550" y="-567.9" font-family="Times Roman,serif" font-size="14.00">stepgen.1.position&#45;fb</text>
</g>
<!-- ypos&#45;fb -->
<g id="node38" class="node"><title>ypos&#45;fb</title>
<polygon fill="none" stroke="black" stroke-dasharray="1,5" points="807,-579 717,-579 717,-543 807,-543 807,-579"/>
<text text-anchor="middle" x="762" y="-556.9" font-family="Times Roman,serif" font-size="14.00">ypos&#45;fb (0)</text>
</g>
<!-- stepgen.1.position&#45;fb&#45;&gt;ypos&#45;fb -->
<g id="edge31" class="edge"><title>stepgen.1.position&#45;fb&#45;&gt;ypos&#45;fb</title>
<path fill="none" stroke="darkblue" d="M630.753,-567.81C656.133,-566.493 683.564,-565.07 706.754,-563.867"/>
<polygon fill="darkblue" stroke="darkblue" points="706.944,-567.361 716.749,-563.348 706.581,-560.371 706.944,-567.361"/>
</g>
<!-- xenable&#45;&gt;stepgen.0.enable -->
<g id="edge9" class="edge"><title>xenable&#45;&gt;stepgen.0.enable</title>
<path fill="none" stroke="black" d="M611.604,-142C634.282,-142 660.269,-142 684.19,-142"/>
<polygon fill="black" stroke="black" points="684.3,-145.5 694.3,-142 684.3,-138.5 684.3,-145.5"/>
</g>
<!-- xpos&#45;cmd&#45;&gt;stepgen.0.position&#45;cmd -->
<g id="edge11" class="edge"><title>xpos&#45;cmd&#45;&gt;stepgen.0.position&#45;cmd</title>
<path fill="none" stroke="black" d="M602.677,-88C621.119,-88 642.474,-88 663.438,-88"/>
<polygon fill="black" stroke="black" points="663.684,-91.5001 673.684,-88 663.684,-84.5001 663.684,-91.5001"/>
</g>
<!-- xpos&#45;fb&#45;&gt;axis.0.motor&#45;pos&#45;fb -->
<g id="edge13" class="edge"><title>xpos&#45;fb&#45;&gt;axis.0.motor&#45;pos&#45;fb</title>
<path fill="none" stroke="black" d="M163.263,-89.1372C188.179,-80.5426 219.7,-69.8928 248,-61 254.412,-58.9852 261.089,-56.9412 267.793,-54.9264"/>
<polygon fill="black" stroke="black" points="269.021,-58.2125 277.604,-52.0019 267.021,-51.5041 269.021,-58.2125"/>
</g>
<!-- yenable&#45;&gt;stepgen.1.enable -->
<g id="edge15" class="edge"><title>yenable&#45;&gt;stepgen.1.enable</title>
<path fill="none" stroke="black" d="M403.141,-680C424.741,-680 449.247,-680 471.966,-680"/>
<polygon fill="black" stroke="black" points="472.262,-683.5 482.262,-680 472.262,-676.5 472.262,-683.5"/>
</g>
<!-- ypos&#45;cmd&#45;&gt;stepgen.1.position&#45;cmd -->
<g id="edge17" class="edge"><title>ypos&#45;cmd&#45;&gt;stepgen.1.position&#45;cmd</title>
<path fill="none" stroke="black" d="M393.74,-626C411.429,-626 431.767,-626 451.794,-626"/>
<polygon fill="black" stroke="black" points="451.905,-629.5 461.905,-626 451.905,-622.5 451.905,-629.5"/>
</g>
<!-- ypos&#45;fb&#45;&gt;axis.1.motor&#45;pos&#45;fb -->
<g id="edge19" class="edge"><title>ypos&#45;fb&#45;&gt;axis.1.motor&#45;pos&#45;fb</title>
<path fill="none" stroke="black" d="M716.76,-551.84C695.399,-547.965 669.493,-543.911 646,-542 489.908,-529.301 307.42,-546.843 203.006,-559.965"/>
<polygon fill="black" stroke="black" points="202.316,-556.524 192.839,-561.259 203.201,-563.468 202.316,-556.524"/>
</g>
<!-- zenable&#45;&gt;stepgen.2.enable -->
<g id="edge21" class="edge"><title>zenable&#45;&gt;stepgen.2.enable</title>
<path fill="none" stroke="black" d="M612.175,-419C634.732,-419 660.502,-419 684.236,-419"/>
<polygon fill="black" stroke="black" points="684.268,-422.5 694.268,-419 684.268,-415.5 684.268,-422.5"/>
</g>
<!-- zpos&#45;cmd&#45;&gt;stepgen.2.position&#45;cmd -->
<g id="edge23" class="edge"><title>zpos&#45;cmd&#45;&gt;stepgen.2.position&#45;cmd</title>
<path fill="none" stroke="black" d="M602.677,-365C621.119,-365 642.474,-365 663.438,-365"/>
<polygon fill="black" stroke="black" points="663.684,-368.5 673.684,-365 663.684,-361.5 663.684,-368.5"/>
</g>
<!-- zpos&#45;fb&#45;&gt;axis.2.motor&#45;pos&#45;fb -->
<g id="edge25" class="edge"><title>zpos&#45;fb&#45;&gt;axis.2.motor&#45;pos&#45;fb</title>
<path fill="none" stroke="black" d="M145.96,-392.81C171.663,-376.702 211.24,-353.417 248,-338 252.629,-336.058 257.444,-334.203 262.338,-332.439"/>
<polygon fill="black" stroke="black" points="263.511,-335.737 271.819,-329.162 261.224,-329.121 263.511,-335.737"/>
</g>
<!-- estop&#45;loop&#45;&gt;iocontrol.0.emc&#45;enable&#45;in -->
<g id="edge27" class="edge"><title>estop&#45;loop&#45;&gt;iocontrol.0.emc&#45;enable&#45;in</title>
<path fill="none" stroke="black" d="M270.26,-265.565C255.479,-267.355 239.589,-269.278 223.85,-271.184"/>
<polygon fill="black" stroke="black" points="223.049,-267.755 213.543,-272.432 223.891,-274.705 223.049,-267.755"/>
</g>
</g>
</svg>
