<?xml version="1.0" encoding="UTF-8" standalone="no"?>
<!DOCTYPE svg PUBLIC "-//W3C//DTD SVG 1.1//EN"
 "http://www.w3.org/Graphics/SVG/1.1/DTD/svg11.dtd">
<!-- Generated by graphviz version 2.26.3 (20100126.1600)
 -->
<!-- Title: HAL Diagram Pages: 1 -->
<svg width="874pt" height="837pt"
 viewBox="0.00 0.00 874.00 837.00" xmlns="http://www.w3.org/2000/svg" xmlns:xlink="http://www.w3.org/1999/xlink">
<g id="graph1" class="graph" transform="scale(1 1) rotate(0) translate(4 833)">
<title>HAL Diagram</title>
<polygon fill="white" stroke="white" points="-4,5 -4,-833 871,-833 871,5 -4,5"/>
<g id="graph2" class="cluster"><title>cluster_iocontrol.0</title>
<polyline fill="none" stroke="black" points="20,-8 216,-8 "/>
<path fill="none" stroke="black" d="M216,-8C222,-8 228,-14 228,-20"/>
<polyline fill="none" stroke="black" points="228,-20 228,-127 "/>
<path fill="none" stroke="black" d="M228,-127C228,-133 222,-139 216,-139"/>
<polyline fill="none" stroke="black" points="216,-139 20,-139 "/>
<path fill="none" stroke="black" d="M20,-139C14,-139 8,-133 8,-127"/>
<polyline fill="none" stroke="black" points="8,-127 8,-20 "/>
<path fill="none" stroke="black" d="M8,-20C8,-14 14,-8 20,-8"/>
<text text-anchor="middle" x="118" y="-122.4" font-family="Times Roman,serif" font-size="14.00">iocontrol.0</text>
</g>
<g id="graph3" class="cluster"><title>cluster_stepgen.1</title>
<polyline fill="none" stroke="black" points="678,-206 846,-206 "/>
<path fill="none" stroke="black" d="M846,-206C852,-206 858,-212 858,-218"/>
<polyline fill="none" stroke="black" points="858,-218 858,-379 "/>
<path fill="none" stroke="black" d="M858,-379C858,-385 852,-391 846,-391"/>
<polyline fill="none" stroke="black" points="846,-391 678,-391 "/>
<path fill="none" stroke="black" d="M678,-391C672,-391 666,-385 666,-379"/>
<polyline fill="none" stroke="black" points="666,-379 666,-218 "/>
<path fill="none" stroke="black" d="M666,-218C666,-212 672,-206 678,-206"/>
<text text-anchor="middle" x="762" y="-374.4" font-family="Times Roman,serif" font-size="14.00">stepgen.1</text>
</g>
<g id="graph4" class="cluster"><title>cluster_axis.1</title>
<polyline fill="none" stroke="black" points="260,-152 422,-152 "/>
<path fill="none" stroke="black" d="M422,-152C428,-152 434,-158 434,-164"/>
<polyline fill="none" stroke="black" points="434,-164 434,-325 "/>
<path fill="none" stroke="black" d="M434,-325C434,-331 428,-337 422,-337"/>
<polyline fill="none" stroke="black" points="422,-337 260,-337 "/>
<path fill="none" stroke="black" d="M260,-337C254,-337 248,-331 248,-325"/>
<polyline fill="none" stroke="black" points="248,-325 248,-164 "/>
<path fill="none" stroke="black" d="M248,-164C248,-158 254,-152 260,-152"/>
<text text-anchor="middle" x="341" y="-320.4" font-family="Times Roman,serif" font-size="14.00">axis.1</text>
</g>
<g id="graph5" class="cluster"><title>cluster_axis.2</title>
<polyline fill="none" stroke="black" points="37,-413 199,-413 "/>
<path fill="none" stroke="black" d="M199,-413C205,-413 211,-419 211,-425"/>
<polyline fill="none" stroke="black" points="211,-425 211,-586 "/>
<path fill="none" stroke="black" d="M211,-586C211,-592 205,-598 199,-598"/>
<polyline fill="none" stroke="black" points="199,-598 37,-598 "/>
<path fill="none" stroke="black" d="M37,-598C31,-598 25,-592 25,-586"/>
<polyline fill="none" stroke="black" points="25,-586 25,-425 "/>
<path fill="none" stroke="black" d="M25,-425C25,-419 31,-413 37,-413"/>
<text text-anchor="middle" x="118" y="-581.4" font-family="Times Roman,serif" font-size="14.00">axis.2</text>
</g>
<g id="graph6" class="cluster"><title>cluster_axis.0</title>
<polyline fill="none" stroke="black" points="37,-636 199,-636 "/>
<path fill="none" stroke="black" d="M199,-636C205,-636 211,-642 211,-648"/>
<polyline fill="none" stroke="black" points="211,-648 211,-809 "/>
<path fill="none" stroke="black" d="M211,-809C211,-815 205,-821 199,-821"/>
<polyline fill="none" stroke="black" points="199,-821 37,-821 "/>
<path fill="none" stroke="black" d="M37,-821C31,-821 25,-815 25,-809"/>
<polyline fill="none" stroke="black" points="25,-809 25,-648 "/>
<path fill="none" stroke="black" d="M25,-648C25,-642 31,-636 37,-636"/>
<text text-anchor="middle" x="118" y="-804.4" font-family="Times Roman,serif" font-size="14.00">axis.0</text>
</g>
<g id="graph7" class="cluster"><title>cluster_stepgen.0</title>
<polyline fill="none" stroke="black" points="466,-636 634,-636 "/>
<path fill="none" stroke="black" d="M634,-636C640,-636 646,-642 646,-648"/>
<polyline fill="none" stroke="black" points="646,-648 646,-809 "/>
<path fill="none" stroke="black" d="M646,-809C646,-815 640,-821 634,-821"/>
<polyline fill="none" stroke="black" points="634,-821 466,-821 "/>
<path fill="none" stroke="black" d="M466,-821C460,-821 454,-815 454,-809"/>
<polyline fill="none" stroke="black" points="454,-809 454,-648 "/>
<path fill="none" stroke="black" d="M454,-648C454,-642 460,-636 466,-636"/>
<text text-anchor="middle" x="550" y="-804.4" font-family="Times Roman,serif" font-size="14.00">stepgen.0</text>
</g>
<g id="graph8" class="cluster"><title>cluster_stepgen.2</title>
<polyline fill="none" stroke="black" points="466,-413 634,-413 "/>
<path fill="none" stroke="black" d="M634,-413C640,-413 646,-419 646,-425"/>
<polyline fill="none" stroke="black" points="646,-425 646,-586 "/>
<path fill="none" stroke="black" d="M646,-586C646,-592 640,-598 634,-598"/>
<polyline fill="none" stroke="black" points="634,-598 466,-598 "/>
<path fill="none" stroke="black" d="M466,-598C460,-598 454,-592 454,-586"/>
<polyline fill="none" stroke="black" points="454,-586 454,-425 "/>
<path fill="none" stroke="black" d="M454,-425C454,-419 460,-413 466,-413"/>
<text text-anchor="middle" x="550" y="-581.4" font-family="Times Roman,serif" font-size="14.00">stepgen.2</text>
</g>
<!-- iocontrol.0.emc&#45;enable&#45;in -->
<g id="node2" class="node"><title>iocontrol.0.emc&#45;enable&#45;in</title>
<polygon fill="lightgrey" stroke="lightgrey" points="213,-106 23,-106 23,-70 213,-70 213,-106"/>
<text text-anchor="middle" x="118" y="-83.9" font-family="Times Roman,serif" font-size="14.00">iocontrol.0.emc&#45;enable&#45;in</text>
</g>
<!-- iocontrol.0.user&#45;enable&#45;out -->
<g id="node3" class="node"><title>iocontrol.0.user&#45;enable&#45;out</title>
<polygon fill="lightgrey" stroke="lightgrey" points="219,-52 17,-52 17,-16 219,-16 219,-52"/>
<text text-anchor="middle" x="118" y="-29.9" font-family="Times Roman,serif" font-size="14.00">iocontrol.0.user&#45;enable&#45;out</text>
</g>
<!-- estop&#45;loop -->
<g id="node46" class="node"><title>estop&#45;loop</title>
<polygon fill="none" stroke="black" stroke-dasharray="1,5" points="411,-79 271,-79 271,-43 411,-43 411,-79"/>
<text text-anchor="middle" x="341" y="-56.9" font-family="Times Roman,serif" font-size="14.00">estop&#45;loop (TRUE)</text>
</g>
<!-- iocontrol.0.user&#45;enable&#45;out&#45;&gt;estop&#45;loop -->
<g id="edge35" class="edge"><title>iocontrol.0.user&#45;enable&#45;out&#45;&gt;estop&#45;loop</title>
<path fill="none" stroke="darkblue" d="M219.711,-46.3148C233.351,-47.9662 247.187,-49.6414 260.395,-51.2406"/>
<polygon fill="darkblue" stroke="darkblue" points="260.011,-54.7196 270.359,-52.447 260.852,-47.7703 260.011,-54.7196"/>
</g>
<!-- stepgen.1.enable -->
<g id="node5" class="node"><title>stepgen.1.enable</title>
<polygon fill="lightgrey" stroke="lightgrey" points="829,-304 695,-304 695,-268 829,-268 829,-304"/>
<text text-anchor="middle" x="762" y="-281.9" font-family="Times Roman,serif" font-size="14.00">stepgen.1.enable</text>
</g>
<!-- stepgen.1.position&#45;cmd -->
<g id="node6" class="node"><title>stepgen.1.position&#45;cmd</title>
<polygon fill="lightgrey" stroke="lightgrey" points="850,-250 674,-250 674,-214 850,-214 850,-250"/>
<text text-anchor="middle" x="762" y="-227.9" font-family="Times Roman,serif" font-size="14.00">stepgen.1.position&#45;cmd</text>
</g>
<!-- stepgen.1.position&#45;fb -->
<g id="node7" class="node"><title>stepgen.1.position&#45;fb</title>
<polygon fill="lightgrey" stroke="lightgrey" points="842,-358 682,-358 682,-322 842,-322 842,-358"/>
<text text-anchor="middle" x="762" y="-335.9" font-family="Times Roman,serif" font-size="14.00">stepgen.1.position&#45;fb</text>
</g>
<!-- ypos&#45;fb -->
<g id="node38" class="node"><title>ypos&#45;fb</title>
<polygon fill="none" stroke="black" stroke-dasharray="1,5" points="163,-233 73,-233 73,-197 163,-197 163,-233"/>
<text text-anchor="middle" x="118" y="-210.9" font-family="Times Roman,serif" font-size="14.00">ypos&#45;fb (0)</text>
</g>
<!-- stepgen.1.position&#45;fb&#45;&gt;ypos&#45;fb -->
<g id="edge31" class="edge"><title>stepgen.1.position&#45;fb&#45;&gt;ypos&#45;fb</title>
<path fill="none" stroke="darkblue" d="M682.767,-358.016C578.716,-377.761 392.325,-399.465 248,-341 198.684,-321.022 157.743,-272.367 135.666,-241.698"/>
<polygon fill="darkblue" stroke="darkblue" points="138.301,-239.36 129.69,-233.187 132.572,-243.382 138.301,-239.36"/>
</g>
<!-- axis.1.amp&#45;enable&#45;out -->
<g id="node9" class="node"><title>axis.1.amp&#45;enable&#45;out</title>
<polygon fill="lightgrey" stroke="lightgrey" points="426,-304 256,-304 256,-268 426,-268 426,-304"/>
<text text-anchor="middle" x="341" y="-281.9" font-family="Times Roman,serif" font-size="14.00">axis.1.amp&#45;enable&#45;out</text>
</g>
<!-- yenable -->
<g id="node34" class="node"><title>yenable</title>
<polygon fill="none" stroke="black" stroke-dasharray="1,5" points="612,-304 488,-304 488,-268 612,-268 612,-304"/>
<text text-anchor="middle" x="550" y="-281.9" font-family="Times Roman,serif" font-size="14.00">yenable (TRUE)</text>
</g>
<!-- axis.1.amp&#45;enable&#45;out&#45;&gt;yenable -->
<g id="edge41" class="edge"><title>axis.1.amp&#45;enable&#45;out&#45;&gt;yenable</title>
<path fill="none" stroke="darkblue" d="M426.008,-286C443.135,-286 460.986,-286 477.632,-286"/>
<polygon fill="darkblue" stroke="darkblue" points="477.824,-289.5 487.824,-286 477.824,-282.5 477.824,-289.5"/>
</g>
<!-- axis.1.motor&#45;pos&#45;cmd -->
<g id="node10" class="node"><title>axis.1.motor&#45;pos&#45;cmd</title>
<polygon fill="lightgrey" stroke="lightgrey" points="423,-250 259,-250 259,-214 423,-214 423,-250"/>
<text text-anchor="middle" x="341" y="-227.9" font-family="Times Roman,serif" font-size="14.00">axis.1.motor&#45;pos&#45;cmd</text>
</g>
<!-- ypos&#45;cmd -->
<g id="node36" class="node"><title>ypos&#45;cmd</title>
<polygon fill="none" stroke="black" stroke-dasharray="1,5" points="602,-250 498,-250 498,-214 602,-214 602,-250"/>
<text text-anchor="middle" x="550" y="-227.9" font-family="Times Roman,serif" font-size="14.00">ypos&#45;cmd (0)</text>
</g>
<!-- axis.1.motor&#45;pos&#45;cmd&#45;&gt;ypos&#45;cmd -->
<g id="edge43" class="edge"><title>axis.1.motor&#45;pos&#45;cmd&#45;&gt;ypos&#45;cmd</title>
<path fill="none" stroke="darkblue" d="M423.002,-232C444.428,-232 467.177,-232 487.414,-232"/>
<polygon fill="darkblue" stroke="darkblue" points="487.437,-235.5 497.437,-232 487.436,-228.5 487.437,-235.5"/>
</g>
<!-- axis.1.motor&#45;pos&#45;fb -->
<g id="node11" class="node"><title>axis.1.motor&#45;pos&#45;fb</title>
<polygon fill="lightgrey" stroke="lightgrey" points="415,-196 267,-196 267,-160 415,-160 415,-196"/>
<text text-anchor="middle" x="341" y="-173.9" font-family="Times Roman,serif" font-size="14.00">axis.1.motor&#45;pos&#45;fb</text>
</g>
<!-- axis.2.amp&#45;enable&#45;out -->
<g id="node13" class="node"><title>axis.2.amp&#45;enable&#45;out</title>
<polygon fill="lightgrey" stroke="lightgrey" points="203,-565 33,-565 33,-529 203,-529 203,-565"/>
<text text-anchor="middle" x="118" y="-542.9" font-family="Times Roman,serif" font-size="14.00">axis.2.amp&#45;enable&#45;out</text>
</g>
<!-- zenable -->
<g id="node40" class="node"><title>zenable</title>
<polygon fill="none" stroke="black" stroke-dasharray="1,5" points="403,-565 279,-565 279,-529 403,-529 403,-565"/>
<text text-anchor="middle" x="341" y="-542.9" font-family="Times Roman,serif" font-size="14.00">zenable (TRUE)</text>
</g>
<!-- axis.2.amp&#45;enable&#45;out&#45;&gt;zenable -->
<g id="edge37" class="edge"><title>axis.2.amp&#45;enable&#45;out&#45;&gt;zenable</title>
<path fill="none" stroke="darkblue" d="M203.261,-547C224.817,-547 247.76,-547 268.613,-547"/>
<polygon fill="darkblue" stroke="darkblue" points="268.667,-550.5 278.667,-547 268.667,-543.5 268.667,-550.5"/>
</g>
<!-- axis.2.motor&#45;pos&#45;cmd -->
<g id="node14" class="node"><title>axis.2.motor&#45;pos&#45;cmd</title>
<polygon fill="lightgrey" stroke="lightgrey" points="200,-511 36,-511 36,-475 200,-475 200,-511"/>
<text text-anchor="middle" x="118" y="-488.9" font-family="Times Roman,serif" font-size="14.00">axis.2.motor&#45;pos&#45;cmd</text>
</g>
<!-- zpos&#45;cmd -->
<g id="node42" class="node"><title>zpos&#45;cmd</title>
<polygon fill="none" stroke="black" stroke-dasharray="1,5" points="393,-511 289,-511 289,-475 393,-475 393,-511"/>
<text text-anchor="middle" x="341" y="-488.9" font-family="Times Roman,serif" font-size="14.00">zpos&#45;cmd (0)</text>
</g>
<!-- axis.2.motor&#45;pos&#45;cmd&#45;&gt;zpos&#45;cmd -->
<g id="edge39" class="edge"><title>axis.2.motor&#45;pos&#45;cmd&#45;&gt;zpos&#45;cmd</title>
<path fill="none" stroke="darkblue" d="M200.087,-493C225.841,-493 253.849,-493 278.061,-493"/>
<polygon fill="darkblue" stroke="darkblue" points="278.187,-496.5 288.187,-493 278.187,-489.5 278.187,-496.5"/>
</g>
<!-- axis.2.motor&#45;pos&#45;fb -->
<g id="node15" class="node"><title>axis.2.motor&#45;pos&#45;fb</title>
<polygon fill="lightgrey" stroke="lightgrey" points="192,-457 44,-457 44,-421 192,-421 192,-457"/>
<text text-anchor="middle" x="118" y="-434.9" font-family="Times Roman,serif" font-size="14.00">axis.2.motor&#45;pos&#45;fb</text>
</g>
<!-- axis.0.amp&#45;enable&#45;out -->
<g id="node17" class="node"><title>axis.0.amp&#45;enable&#45;out</title>
<polygon fill="lightgrey" stroke="lightgrey" points="203,-788 33,-788 33,-752 203,-752 203,-788"/>
<text text-anchor="middle" x="118" y="-765.9" font-family="Times Roman,serif" font-size="14.00">axis.0.amp&#45;enable&#45;out</text>
</g>
<!-- xenable -->
<g id="node28" class="node"><title>xenable</title>
<polygon fill="none" stroke="black" stroke-dasharray="1,5" points="402,-788 280,-788 280,-752 402,-752 402,-788"/>
<text text-anchor="middle" x="341" y="-765.9" font-family="Times Roman,serif" font-size="14.00">xenable (TRUE)</text>
</g>
<!-- axis.0.amp&#45;enable&#45;out&#45;&gt;xenable -->
<g id="edge45" class="edge"><title>axis.0.amp&#45;enable&#45;out&#45;&gt;xenable</title>
<path fill="none" stroke="darkblue" d="M203.261,-770C225.028,-770 248.21,-770 269.226,-770"/>
<polygon fill="darkblue" stroke="darkblue" points="269.353,-773.5 279.353,-770 269.353,-766.5 269.353,-773.5"/>
</g>
<!-- axis.0.motor&#45;pos&#45;cmd -->
<g id="node18" class="node"><title>axis.0.motor&#45;pos&#45;cmd</title>
<polygon fill="lightgrey" stroke="lightgrey" points="200,-734 36,-734 36,-698 200,-698 200,-734"/>
<text text-anchor="middle" x="118" y="-711.9" font-family="Times Roman,serif" font-size="14.00">axis.0.motor&#45;pos&#45;cmd</text>
</g>
<!-- xpos&#45;cmd -->
<g id="node30" class="node"><title>xpos&#45;cmd</title>
<polygon fill="none" stroke="black" stroke-dasharray="1,5" points="393,-734 289,-734 289,-698 393,-698 393,-734"/>
<text text-anchor="middle" x="341" y="-711.9" font-family="Times Roman,serif" font-size="14.00">xpos&#45;cmd (0)</text>
</g>
<!-- axis.0.motor&#45;pos&#45;cmd&#45;&gt;xpos&#45;cmd -->
<g id="edge47" class="edge"><title>axis.0.motor&#45;pos&#45;cmd&#45;&gt;xpos&#45;cmd</title>
<path fill="none" stroke="darkblue" d="M200.087,-716C225.841,-716 253.849,-716 278.061,-716"/>
<polygon fill="darkblue" stroke="darkblue" points="278.187,-719.5 288.187,-716 278.187,-712.5 278.187,-719.5"/>
</g>
<!-- axis.0.motor&#45;pos&#45;fb -->
<g id="node19" class="node"><title>axis.0.motor&#45;pos&#45;fb</title>
<polygon fill="lightgrey" stroke="lightgrey" points="192,-680 44,-680 44,-644 192,-644 192,-680"/>
<text text-anchor="middle" x="118" y="-657.9" font-family="Times Roman,serif" font-size="14.00">axis.0.motor&#45;pos&#45;fb</text>
</g>
<!-- stepgen.0.enable -->
<g id="node21" class="node"><title>stepgen.0.enable</title>
<polygon fill="lightgrey" stroke="lightgrey" points="617,-788 483,-788 483,-752 617,-752 617,-788"/>
<text text-anchor="middle" x="550" y="-765.9" font-family="Times Roman,serif" font-size="14.00">stepgen.0.enable</text>
</g>
<!-- stepgen.0.position&#45;cmd -->
<g id="node22" class="node"><title>stepgen.0.position&#45;cmd</title>
<polygon fill="lightgrey" stroke="lightgrey" points="638,-734 462,-734 462,-698 638,-698 638,-734"/>
<text text-anchor="middle" x="550" y="-711.9" font-family="Times Roman,serif" font-size="14.00">stepgen.0.position&#45;cmd</text>
</g>
<!-- stepgen.0.position&#45;fb -->
<g id="node23" class="node"><title>stepgen.0.position&#45;fb</title>
<polygon fill="lightgrey" stroke="lightgrey" points="630,-680 470,-680 470,-644 630,-644 630,-680"/>
<text text-anchor="middle" x="550" y="-657.9" font-family="Times Roman,serif" font-size="14.00">stepgen.0.position&#45;fb</text>
</g>
<!-- xpos&#45;fb -->
<g id="node32" class="node"><title>xpos&#45;fb</title>
<polygon fill="none" stroke="black" stroke-dasharray="1,5" points="807,-657 717,-657 717,-621 807,-621 807,-657"/>
<text text-anchor="middle" x="762" y="-634.9" font-family="Times Roman,serif" font-size="14.00">xpos&#45;fb (0)</text>
</g>
<!-- stepgen.0.position&#45;fb&#45;&gt;xpos&#45;fb -->
<g id="edge33" class="edge"><title>stepgen.0.position&#45;fb&#45;&gt;xpos&#45;fb</title>
<path fill="none" stroke="darkblue" d="M630.753,-653.239C656.133,-650.486 683.564,-647.51 706.754,-644.994"/>
<polygon fill="darkblue" stroke="darkblue" points="707.185,-648.468 716.749,-643.909 706.43,-641.508 707.185,-648.468"/>
</g>
<!-- stepgen.2.enable -->
<g id="node25" class="node"><title>stepgen.2.enable</title>
<polygon fill="lightgrey" stroke="lightgrey" points="617,-565 483,-565 483,-529 617,-529 617,-565"/>
<text text-anchor="middle" x="550" y="-542.9" font-family="Times Roman,serif" font-size="14.00">stepgen.2.enable</text>
</g>
<!-- stepgen.2.position&#45;cmd -->
<g id="node26" class="node"><title>stepgen.2.position&#45;cmd</title>
<polygon fill="lightgrey" stroke="lightgrey" points="638,-511 462,-511 462,-475 638,-475 638,-511"/>
<text text-anchor="middle" x="550" y="-488.9" font-family="Times Roman,serif" font-size="14.00">stepgen.2.position&#45;cmd</text>
</g>
<!-- stepgen.2.position&#45;fb -->
<g id="node27" class="node"><title>stepgen.2.position&#45;fb</title>
<polygon fill="lightgrey" stroke="lightgrey" points="630,-457 470,-457 470,-421 630,-421 630,-457"/>
<text text-anchor="middle" x="550" y="-434.9" font-family="Times Roman,serif" font-size="14.00">stepgen.2.position&#45;fb</text>
</g>
<!-- zpos&#45;fb -->
<g id="node44" class="node"><title>zpos&#45;fb</title>
<polygon fill="none" stroke="black" stroke-dasharray="1,5" points="807,-446 717,-446 717,-410 807,-410 807,-446"/>
<text text-anchor="middle" x="762" y="-423.9" font-family="Times Roman,serif" font-size="14.00">zpos&#45;fb (0)</text>
</g>
<!-- stepgen.2.position&#45;fb&#45;&gt;zpos&#45;fb -->
<g id="edge29" class="edge"><title>stepgen.2.position&#45;fb&#45;&gt;zpos&#45;fb</title>
<path fill="none" stroke="darkblue" d="M630.753,-434.81C656.133,-433.493 683.564,-432.07 706.754,-430.867"/>
<polygon fill="darkblue" stroke="darkblue" points="706.944,-434.361 716.749,-430.348 706.581,-427.371 706.944,-434.361"/>
</g>
<!-- xenable&#45;&gt;stepgen.0.enable -->
<g id="edge9" class="edge"><title>xenable&#45;&gt;stepgen.0.enable</title>
<path fill="none" stroke="black" d="M402.576,-770C424.393,-770 449.231,-770 472.22,-770"/>
<polygon fill="black" stroke="black" points="472.288,-773.5 482.288,-770 472.288,-766.5 472.288,-773.5"/>
</g>
<!-- xpos&#45;cmd&#45;&gt;stepgen.0.position&#45;cmd -->
<g id="edge11" class="edge"><title>xpos&#45;cmd&#45;&gt;stepgen.0.position&#45;cmd</title>
<path fill="none" stroke="black" d="M393.74,-716C411.429,-716 431.767,-716 451.794,-716"/>
<polygon fill="black" stroke="black" points="451.905,-719.5 461.905,-716 451.905,-712.5 451.905,-719.5"/>
</g>
<!-- xpos&#45;fb&#45;&gt;axis.0.motor&#45;pos&#45;fb -->
<g id="edge13" class="edge"><title>xpos&#45;fb&#45;&gt;axis.0.motor&#45;pos&#45;fb</title>
<path fill="none" stroke="black" d="M716.856,-635.642C695.403,-634.209 669.393,-632.705 646,-632 560.705,-629.429 539.249,-628.202 454,-632 368.298,-635.818 270.665,-645.089 202.813,-652.322"/>
<polygon fill="black" stroke="black" points="202.174,-648.871 192.605,-653.419 202.922,-655.831 202.174,-648.871"/>
</g>
<!-- yenable&#45;&gt;stepgen.1.enable -->
<g id="edge15" class="edge"><title>yenable&#45;&gt;stepgen.1.enable</title>
<path fill="none" stroke="black" d="M612.175,-286C634.732,-286 660.502,-286 684.236,-286"/>
<polygon fill="black" stroke="black" points="684.268,-289.5 694.268,-286 684.268,-282.5 684.268,-289.5"/>
</g>
<!-- ypos&#45;cmd&#45;&gt;stepgen.1.position&#45;cmd -->
<g id="edge17" class="edge"><title>ypos&#45;cmd&#45;&gt;stepgen.1.position&#45;cmd</title>
<path fill="none" stroke="black" d="M602.677,-232C621.119,-232 642.474,-232 663.438,-232"/>
<polygon fill="black" stroke="black" points="663.684,-235.5 673.684,-232 663.684,-228.5 663.684,-235.5"/>
</g>
<!-- ypos&#45;fb&#45;&gt;axis.1.motor&#45;pos&#45;fb -->
<g id="edge19" class="edge"><title>ypos&#45;fb&#45;&gt;axis.1.motor&#45;pos&#45;fb</title>
<path fill="none" stroke="black" d="M163.127,-207.512C189.77,-203.092 224.362,-197.352 255.949,-192.112"/>
<polygon fill="black" stroke="black" points="256.793,-195.52 266.085,-190.43 255.647,-188.614 256.793,-195.52"/>
</g>
<!-- zenable&#45;&gt;stepgen.2.enable -->
<g id="edge21" class="edge"><title>zenable&#45;&gt;stepgen.2.enable</title>
<path fill="none" stroke="black" d="M403.141,-547C424.741,-547 449.247,-547 471.966,-547"/>
<polygon fill="black" stroke="black" points="472.262,-550.5 482.262,-547 472.262,-543.5 472.262,-550.5"/>
</g>
<!-- zpos&#45;cmd&#45;&gt;stepgen.2.position&#45;cmd -->
<g id="edge23" class="edge"><title>zpos&#45;cmd&#45;&gt;stepgen.2.position&#45;cmd</title>
<path fill="none" stroke="black" d="M393.74,-493C411.429,-493 431.767,-493 451.794,-493"/>
<polygon fill="black" stroke="black" points="451.905,-496.5 461.905,-493 451.905,-489.5 451.905,-496.5"/>
</g>
<!-- zpos&#45;fb&#45;&gt;axis.2.motor&#45;pos&#45;fb -->
<g id="edge25" class="edge"><title>zpos&#45;fb&#45;&gt;axis.2.motor&#45;pos&#45;fb</title>
<path fill="none" stroke="black" d="M716.76,-418.84C695.399,-414.965 669.493,-410.911 646,-409 489.908,-396.301 307.42,-413.843 203.006,-426.965"/>
<polygon fill="black" stroke="black" points="202.316,-423.524 192.839,-428.259 203.201,-430.468 202.316,-423.524"/>
</g>
<!-- estop&#45;loop&#45;&gt;iocontrol.0.emc&#45;enable&#45;in -->
<g id="edge27" class="edge"><title>estop&#45;loop&#45;&gt;iocontrol.0.emc&#45;enable&#45;in</title>
<path fill="none" stroke="black" d="M270.26,-69.5649C255.479,-71.3546 239.589,-73.2784 223.85,-75.184"/>
<polygon fill="black" stroke="black" points="223.049,-71.7554 213.543,-76.4321 223.891,-78.7046 223.049,-71.7554"/>
</g>
</g>
</svg>
