<?xml version="1.0" encoding="UTF-8" standalone="no"?>
<!DOCTYPE svg PUBLIC "-//W3C//DTD SVG 1.1//EN"
 "http://www.w3.org/Graphics/SVG/1.1/DTD/svg11.dtd">
<!-- Generated by graphviz version 2.26.3 (20100126.1600)
 -->
<!-- Title: HAL Diagram Pages: 1 -->
<svg width="874pt" height="777pt"
 viewBox="0.00 0.00 874.00 777.00" xmlns="http://www.w3.org/2000/svg" xmlns:xlink="http://www.w3.org/1999/xlink">
<g id="graph1" class="graph" transform="scale(1 1) rotate(0) translate(4 773)">
<title>HAL Diagram</title>
<polygon fill="white" stroke="white" points="-4,5 -4,-773 871,-773 871,5 -4,5"/>
<g id="graph2" class="cluster"><title>cluster_axis.2</title>
<polyline fill="none" stroke="black" points="37,-15 199,-15 "/>
<path fill="none" stroke="black" d="M199,-15C205,-15 211,-21 211,-27"/>
<polyline fill="none" stroke="black" points="211,-27 211,-188 "/>
<path fill="none" stroke="black" d="M211,-188C211,-194 205,-200 199,-200"/>
<polyline fill="none" stroke="black" points="199,-200 37,-200 "/>
<path fill="none" stroke="black" d="M37,-200C31,-200 25,-194 25,-188"/>
<polyline fill="none" stroke="black" points="25,-188 25,-27 "/>
<path fill="none" stroke="black" d="M25,-27C25,-21 31,-15 37,-15"/>
<text text-anchor="middle" x="118" y="-183.4" font-family="Times Roman,serif" font-size="14.00">axis.2</text>
</g>
<g id="graph3" class="cluster"><title>cluster_axis.0</title>
<polyline fill="none" stroke="black" points="37,-238 199,-238 "/>
<path fill="none" stroke="black" d="M199,-238C205,-238 211,-244 211,-250"/>
<polyline fill="none" stroke="black" points="211,-250 211,-411 "/>
<path fill="none" stroke="black" d="M211,-411C211,-417 205,-423 199,-423"/>
<polyline fill="none" stroke="black" points="199,-423 37,-423 "/>
<path fill="none" stroke="black" d="M37,-423C31,-423 25,-417 25,-411"/>
<polyline fill="none" stroke="black" points="25,-411 25,-250 "/>
<path fill="none" stroke="black" d="M25,-250C25,-244 31,-238 37,-238"/>
<text text-anchor="middle" x="118" y="-406.4" font-family="Times Roman,serif" font-size="14.00">axis.0</text>
</g>
<g id="graph4" class="cluster"><title>cluster_stepgen.1</title>
<polyline fill="none" stroke="black" points="678,-488 846,-488 "/>
<path fill="none" stroke="black" d="M846,-488C852,-488 858,-494 858,-500"/>
<polyline fill="none" stroke="black" points="858,-500 858,-661 "/>
<path fill="none" stroke="black" d="M858,-661C858,-667 852,-673 846,-673"/>
<polyline fill="none" stroke="black" points="846,-673 678,-673 "/>
<path fill="none" stroke="black" d="M678,-673C672,-673 666,-667 666,-661"/>
<polyline fill="none" stroke="black" points="666,-661 666,-500 "/>
<path fill="none" stroke="black" d="M666,-500C666,-494 672,-488 678,-488"/>
<text text-anchor="middle" x="762" y="-656.4" font-family="Times Roman,serif" font-size="14.00">stepgen.1</text>
</g>
<g id="graph5" class="cluster"><title>cluster_stepgen.2</title>
<polyline fill="none" stroke="black" points="466,-15 634,-15 "/>
<path fill="none" stroke="black" d="M634,-15C640,-15 646,-21 646,-27"/>
<polyline fill="none" stroke="black" points="646,-27 646,-188 "/>
<path fill="none" stroke="black" d="M646,-188C646,-194 640,-200 634,-200"/>
<polyline fill="none" stroke="black" points="634,-200 466,-200 "/>
<path fill="none" stroke="black" d="M466,-200C460,-200 454,-194 454,-188"/>
<polyline fill="none" stroke="black" points="454,-188 454,-27 "/>
<path fill="none" stroke="black" d="M454,-27C454,-21 460,-15 466,-15"/>
<text text-anchor="middle" x="550" y="-183.4" font-family="Times Roman,serif" font-size="14.00">stepgen.2</text>
</g>
<g id="graph6" class="cluster"><title>cluster_stepgen.0</title>
<polyline fill="none" stroke="black" points="466,-238 634,-238 "/>
<path fill="none" stroke="black" d="M634,-238C640,-238 646,-244 646,-250"/>
<polyline fill="none" stroke="black" points="646,-250 646,-411 "/>
<path fill="none" stroke="black" d="M646,-411C646,-417 640,-423 634,-423"/>
<polyline fill="none" stroke="black" points="634,-423 466,-423 "/>
<path fill="none" stroke="black" d="M466,-423C460,-423 454,-417 454,-411"/>
<polyline fill="none" stroke="black" points="454,-411 454,-250 "/>
<path fill="none" stroke="black" d="M454,-250C454,-244 460,-238 466,-238"/>
<text text-anchor="middle" x="550" y="-406.4" font-family="Times Roman,serif" font-size="14.00">stepgen.0</text>
</g>
<g id="graph7" class="cluster"><title>cluster_iocontrol.0</title>
<polyline fill="none" stroke="black" points="20,-630 216,-630 "/>
<path fill="none" stroke="black" d="M216,-630C222,-630 228,-636 228,-642"/>
<polyline fill="none" stroke="black" points="228,-642 228,-749 "/>
<path fill="none" stroke="black" d="M228,-749C228,-755 222,-761 216,-761"/>
<polyline fill="none" stroke="black" points="216,-761 20,-761 "/>
<path fill="none" stroke="black" d="M20,-761C14,-761 8,-755 8,-749"/>
<polyline fill="none" stroke="black" points="8,-749 8,-642 "/>
<path fill="none" stroke="black" d="M8,-642C8,-636 14,-630 20,-630"/>
<text text-anchor="middle" x="118" y="-744.4" font-family="Times Roman,serif" font-size="14.00">iocontrol.0</text>
</g>
<g id="graph8" class="cluster"><title>cluster_axis.1</title>
<polyline fill="none" stroke="black" points="260,-434 422,-434 "/>
<path fill="none" stroke="black" d="M422,-434C428,-434 434,-440 434,-446"/>
<polyline fill="none" stroke="black" points="434,-446 434,-607 "/>
<path fill="none" stroke="black" d="M434,-607C434,-613 428,-619 422,-619"/>
<polyline fill="none" stroke="black" points="422,-619 260,-619 "/>
<path fill="none" stroke="black" d="M260,-619C254,-619 248,-613 248,-607"/>
<polyline fill="none" stroke="black" points="248,-607 248,-446 "/>
<path fill="none" stroke="black" d="M248,-446C248,-440 254,-434 260,-434"/>
<text text-anchor="middle" x="341" y="-602.4" font-family="Times Roman,serif" font-size="14.00">axis.1</text>
</g>
<!-- axis.2.amp&#45;enable&#45;out -->
<g id="node2" class="node"><title>axis.2.amp&#45;enable&#45;out</title>
<polygon fill="lightgrey" stroke="lightgrey" points="203,-167 33,-167 33,-131 203,-131 203,-167"/>
<text text-anchor="middle" x="118" y="-144.9" font-family="Times Roman,serif" font-size="14.00">axis.2.amp&#45;enable&#45;out</text>
</g>
<!-- zenable -->
<g id="node40" class="node"><title>zenable</title>
<polygon fill="none" stroke="black" stroke-dasharray="1,5" points="403,-167 279,-167 279,-131 403,-131 403,-167"/>
<text text-anchor="middle" x="341" y="-144.9" font-family="Times Roman,serif" font-size="14.00">zenable (TRUE)</text>
</g>
<!-- axis.2.amp&#45;enable&#45;out&#45;&gt;zenable -->
<g id="edge37" class="edge"><title>axis.2.amp&#45;enable&#45;out&#45;&gt;zenable</title>
<path fill="none" stroke="darkblue" d="M203.261,-149C224.817,-149 247.76,-149 268.613,-149"/>
<polygon fill="darkblue" stroke="darkblue" points="268.667,-152.5 278.667,-149 268.667,-145.5 268.667,-152.5"/>
</g>
<!-- axis.2.motor&#45;pos&#45;cmd -->
<g id="node3" class="node"><title>axis.2.motor&#45;pos&#45;cmd</title>
<polygon fill="lightgrey" stroke="lightgrey" points="200,-113 36,-113 36,-77 200,-77 200,-113"/>
<text text-anchor="middle" x="118" y="-90.9" font-family="Times Roman,serif" font-size="14.00">axis.2.motor&#45;pos&#45;cmd</text>
</g>
<!-- zpos&#45;cmd -->
<g id="node42" class="node"><title>zpos&#45;cmd</title>
<polygon fill="none" stroke="black" stroke-dasharray="1,5" points="393,-113 289,-113 289,-77 393,-77 393,-113"/>
<text text-anchor="middle" x="341" y="-90.9" font-family="Times Roman,serif" font-size="14.00">zpos&#45;cmd (0)</text>
</g>
<!-- axis.2.motor&#45;pos&#45;cmd&#45;&gt;zpos&#45;cmd -->
<g id="edge39" class="edge"><title>axis.2.motor&#45;pos&#45;cmd&#45;&gt;zpos&#45;cmd</title>
<path fill="none" stroke="darkblue" d="M200.087,-95C225.841,-95 253.849,-95 278.061,-95"/>
<polygon fill="darkblue" stroke="darkblue" points="278.187,-98.5001 288.187,-95 278.187,-91.5001 278.187,-98.5001"/>
</g>
<!-- axis.2.motor&#45;pos&#45;fb -->
<g id="node4" class="node"><title>axis.2.motor&#45;pos&#45;fb</title>
<polygon fill="lightgrey" stroke="lightgrey" points="192,-59 44,-59 44,-23 192,-23 192,-59"/>
<text text-anchor="middle" x="118" y="-36.9" font-family="Times Roman,serif" font-size="14.00">axis.2.motor&#45;pos&#45;fb</text>
</g>
<!-- axis.0.amp&#45;enable&#45;out -->
<g id="node6" class="node"><title>axis.0.amp&#45;enable&#45;out</title>
<polygon fill="lightgrey" stroke="lightgrey" points="203,-390 33,-390 33,-354 203,-354 203,-390"/>
<text text-anchor="middle" x="118" y="-367.9" font-family="Times Roman,serif" font-size="14.00">axis.0.amp&#45;enable&#45;out</text>
</g>
<!-- xenable -->
<g id="node28" class="node"><title>xenable</title>
<polygon fill="none" stroke="black" stroke-dasharray="1,5" points="402,-390 280,-390 280,-354 402,-354 402,-390"/>
<text text-anchor="middle" x="341" y="-367.9" font-family="Times Roman,serif" font-size="14.00">xenable (TRUE)</text>
</g>
<!-- axis.0.amp&#45;enable&#45;out&#45;&gt;xenable -->
<g id="edge45" class="edge"><title>axis.0.amp&#45;enable&#45;out&#45;&gt;xenable</title>
<path fill="none" stroke="darkblue" d="M203.261,-372C225.028,-372 248.21,-372 269.226,-372"/>
<polygon fill="darkblue" stroke="darkblue" points="269.353,-375.5 279.353,-372 269.353,-368.5 269.353,-375.5"/>
</g>
<!-- axis.0.motor&#45;pos&#45;cmd -->
<g id="node7" class="node"><title>axis.0.motor&#45;pos&#45;cmd</title>
<polygon fill="lightgrey" stroke="lightgrey" points="200,-336 36,-336 36,-300 200,-300 200,-336"/>
<text text-anchor="middle" x="118" y="-313.9" font-family="Times Roman,serif" font-size="14.00">axis.0.motor&#45;pos&#45;cmd</text>
</g>
<!-- xpos&#45;cmd -->
<g id="node30" class="node"><title>xpos&#45;cmd</title>
<polygon fill="none" stroke="black" stroke-dasharray="1,5" points="393,-336 289,-336 289,-300 393,-300 393,-336"/>
<text text-anchor="middle" x="341" y="-313.9" font-family="Times Roman,serif" font-size="14.00">xpos&#45;cmd (0)</text>
</g>
<!-- axis.0.motor&#45;pos&#45;cmd&#45;&gt;xpos&#45;cmd -->
<g id="edge47" class="edge"><title>axis.0.motor&#45;pos&#45;cmd&#45;&gt;xpos&#45;cmd</title>
<path fill="none" stroke="darkblue" d="M200.087,-318C225.841,-318 253.849,-318 278.061,-318"/>
<polygon fill="darkblue" stroke="darkblue" points="278.187,-321.5 288.187,-318 278.187,-314.5 278.187,-321.5"/>
</g>
<!-- axis.0.motor&#45;pos&#45;fb -->
<g id="node8" class="node"><title>axis.0.motor&#45;pos&#45;fb</title>
<polygon fill="lightgrey" stroke="lightgrey" points="192,-282 44,-282 44,-246 192,-246 192,-282"/>
<text text-anchor="middle" x="118" y="-259.9" font-family="Times Roman,serif" font-size="14.00">axis.0.motor&#45;pos&#45;fb</text>
</g>
<!-- stepgen.1.enable -->
<g id="node10" class="node"><title>stepgen.1.enable</title>
<polygon fill="lightgrey" stroke="lightgrey" points="829,-586 695,-586 695,-550 829,-550 829,-586"/>
<text text-anchor="middle" x="762" y="-563.9" font-family="Times Roman,serif" font-size="14.00">stepgen.1.enable</text>
</g>
<!-- stepgen.1.position&#45;cmd -->
<g id="node11" class="node"><title>stepgen.1.position&#45;cmd</title>
<polygon fill="lightgrey" stroke="lightgrey" points="850,-532 674,-532 674,-496 850,-496 850,-532"/>
<text text-anchor="middle" x="762" y="-509.9" font-family="Times Roman,serif" font-size="14.00">stepgen.1.position&#45;cmd</text>
</g>
<!-- stepgen.1.position&#45;fb -->
<g id="node12" class="node"><title>stepgen.1.position&#45;fb</title>
<polygon fill="lightgrey" stroke="lightgrey" points="842,-640 682,-640 682,-604 842,-604 842,-640"/>
<text text-anchor="middle" x="762" y="-617.9" font-family="Times Roman,serif" font-size="14.00">stepgen.1.position&#45;fb</text>
</g>
<!-- ypos&#45;fb -->
<g id="node38" class="node"><title>ypos&#45;fb</title>
<polygon fill="none" stroke="black" stroke-dasharray="1,5" points="163,-513 73,-513 73,-477 163,-477 163,-513"/>
<text text-anchor="middle" x="118" y="-490.9" font-family="Times Roman,serif" font-size="14.00">ypos&#45;fb (0)</text>
</g>
<!-- stepgen.1.position&#45;fb&#45;&gt;ypos&#45;fb -->
<g id="edge31" class="edge"><title>stepgen.1.position&#45;fb&#45;&gt;ypos&#45;fb</title>
<path fill="none" stroke="darkblue" d="M681.431,-629.536C556.897,-639.952 324.073,-654.165 248,-623 198.17,-602.586 157.189,-552.831 135.281,-521.711"/>
<polygon fill="darkblue" stroke="darkblue" points="138.164,-519.727 129.616,-513.468 132.395,-523.691 138.164,-519.727"/>
</g>
<!-- stepgen.2.enable -->
<g id="node14" class="node"><title>stepgen.2.enable</title>
<polygon fill="lightgrey" stroke="lightgrey" points="617,-167 483,-167 483,-131 617,-131 617,-167"/>
<text text-anchor="middle" x="550" y="-144.9" font-family="Times Roman,serif" font-size="14.00">stepgen.2.enable</text>
</g>
<!-- stepgen.2.position&#45;cmd -->
<g id="node15" class="node"><title>stepgen.2.position&#45;cmd</title>
<polygon fill="lightgrey" stroke="lightgrey" points="638,-113 462,-113 462,-77 638,-77 638,-113"/>
<text text-anchor="middle" x="550" y="-90.9" font-family="Times Roman,serif" font-size="14.00">stepgen.2.position&#45;cmd</text>
</g>
<!-- stepgen.2.position&#45;fb -->
<g id="node16" class="node"><title>stepgen.2.position&#45;fb</title>
<polygon fill="lightgrey" stroke="lightgrey" points="630,-59 470,-59 470,-23 630,-23 630,-59"/>
<text text-anchor="middle" x="550" y="-36.9" font-family="Times Roman,serif" font-size="14.00">stepgen.2.position&#45;fb</text>
</g>
<!-- zpos&#45;fb -->
<g id="node44" class="node"><title>zpos&#45;fb</title>
<polygon fill="none" stroke="black" stroke-dasharray="1,5" points="807,-36 717,-36 717,-1.06581e-14 807,-0 807,-36"/>
<text text-anchor="middle" x="762" y="-13.9" font-family="Times Roman,serif" font-size="14.00">zpos&#45;fb (0)</text>
</g>
<!-- stepgen.2.position&#45;fb&#45;&gt;zpos&#45;fb -->
<g id="edge29" class="edge"><title>stepgen.2.position&#45;fb&#45;&gt;zpos&#45;fb</title>
<path fill="none" stroke="darkblue" d="M630.753,-32.2391C656.133,-29.4855 683.564,-26.5095 706.754,-23.9937"/>
<polygon fill="darkblue" stroke="darkblue" points="707.185,-27.4675 716.749,-22.9093 706.43,-20.5084 707.185,-27.4675"/>
</g>
<!-- stepgen.0.enable -->
<g id="node18" class="node"><title>stepgen.0.enable</title>
<polygon fill="lightgrey" stroke="lightgrey" points="617,-390 483,-390 483,-354 617,-354 617,-390"/>
<text text-anchor="middle" x="550" y="-367.9" font-family="Times Roman,serif" font-size="14.00">stepgen.0.enable</text>
</g>
<!-- stepgen.0.position&#45;cmd -->
<g id="node19" class="node"><title>stepgen.0.position&#45;cmd</title>
<polygon fill="lightgrey" stroke="lightgrey" points="638,-336 462,-336 462,-300 638,-300 638,-336"/>
<text text-anchor="middle" x="550" y="-313.9" font-family="Times Roman,serif" font-size="14.00">stepgen.0.position&#45;cmd</text>
</g>
<!-- stepgen.0.position&#45;fb -->
<g id="node20" class="node"><title>stepgen.0.position&#45;fb</title>
<polygon fill="lightgrey" stroke="lightgrey" points="630,-282 470,-282 470,-246 630,-246 630,-282"/>
<text text-anchor="middle" x="550" y="-259.9" font-family="Times Roman,serif" font-size="14.00">stepgen.0.position&#45;fb</text>
</g>
<!-- xpos&#45;fb -->
<g id="node32" class="node"><title>xpos&#45;fb</title>
<polygon fill="none" stroke="black" stroke-dasharray="1,5" points="807,-259 717,-259 717,-223 807,-223 807,-259"/>
<text text-anchor="middle" x="762" y="-236.9" font-family="Times Roman,serif" font-size="14.00">xpos&#45;fb (0)</text>
</g>
<!-- stepgen.0.position&#45;fb&#45;&gt;xpos&#45;fb -->
<g id="edge33" class="edge"><title>stepgen.0.position&#45;fb&#45;&gt;xpos&#45;fb</title>
<path fill="none" stroke="darkblue" d="M630.753,-255.239C656.133,-252.486 683.564,-249.51 706.754,-246.994"/>
<polygon fill="darkblue" stroke="darkblue" points="707.185,-250.468 716.749,-245.909 706.43,-243.508 707.185,-250.468"/>
</g>
<!-- iocontrol.0.emc&#45;enable&#45;in -->
<g id="node22" class="node"><title>iocontrol.0.emc&#45;enable&#45;in</title>
<polygon fill="lightgrey" stroke="lightgrey" points="213,-728 23,-728 23,-692 213,-692 213,-728"/>
<text text-anchor="middle" x="118" y="-705.9" font-family="Times Roman,serif" font-size="14.00">iocontrol.0.emc&#45;enable&#45;in</text>
</g>
<!-- iocontrol.0.user&#45;enable&#45;out -->
<g id="node23" class="node"><title>iocontrol.0.user&#45;enable&#45;out</title>
<polygon fill="lightgrey" stroke="lightgrey" points="219,-674 17,-674 17,-638 219,-638 219,-674"/>
<text text-anchor="middle" x="118" y="-651.9" font-family="Times Roman,serif" font-size="14.00">iocontrol.0.user&#45;enable&#45;out</text>
</g>
<!-- estop&#45;loop -->
<g id="node46" class="node"><title>estop&#45;loop</title>
<polygon fill="none" stroke="black" stroke-dasharray="1,5" points="411,-701 271,-701 271,-665 411,-665 411,-701"/>
<text text-anchor="middle" x="341" y="-678.9" font-family="Times Roman,serif" font-size="14.00">estop&#45;loop (TRUE)</text>
</g>
<!-- iocontrol.0.user&#45;enable&#45;out&#45;&gt;estop&#45;loop -->
<g id="edge35" class="edge"><title>iocontrol.0.user&#45;enable&#45;out&#45;&gt;estop&#45;loop</title>
<path fill="none" stroke="darkblue" d="M219.711,-668.315C233.351,-669.966 247.187,-671.641 260.395,-673.241"/>
<polygon fill="darkblue" stroke="darkblue" points="260.011,-676.72 270.359,-674.447 260.852,-669.77 260.011,-676.72"/>
</g>
<!-- axis.1.amp&#45;enable&#45;out -->
<g id="node25" class="node"><title>axis.1.amp&#45;enable&#45;out</title>
<polygon fill="lightgrey" stroke="lightgrey" points="426,-586 256,-586 256,-550 426,-550 426,-586"/>
<text text-anchor="middle" x="341" y="-563.9" font-family="Times Roman,serif" font-size="14.00">axis.1.amp&#45;enable&#45;out</text>
</g>
<!-- yenable -->
<g id="node34" class="node"><title>yenable</title>
<polygon fill="none" stroke="black" stroke-dasharray="1,5" points="612,-586 488,-586 488,-550 612,-550 612,-586"/>
<text text-anchor="middle" x="550" y="-563.9" font-family="Times Roman,serif" font-size="14.00">yenable (TRUE)</text>
</g>
<!-- axis.1.amp&#45;enable&#45;out&#45;&gt;yenable -->
<g id="edge41" class="edge"><title>axis.1.amp&#45;enable&#45;out&#45;&gt;yenable</title>
<path fill="none" stroke="darkblue" d="M426.008,-568C443.135,-568 460.986,-568 477.632,-568"/>
<polygon fill="darkblue" stroke="darkblue" points="477.824,-571.5 487.824,-568 477.824,-564.5 477.824,-571.5"/>
</g>
<!-- axis.1.motor&#45;pos&#45;cmd -->
<g id="node26" class="node"><title>axis.1.motor&#45;pos&#45;cmd</title>
<polygon fill="lightgrey" stroke="lightgrey" points="423,-532 259,-532 259,-496 423,-496 423,-532"/>
<text text-anchor="middle" x="341" y="-509.9" font-family="Times Roman,serif" font-size="14.00">axis.1.motor&#45;pos&#45;cmd</text>
</g>
<!-- ypos&#45;cmd -->
<g id="node36" class="node"><title>ypos&#45;cmd</title>
<polygon fill="none" stroke="black" stroke-dasharray="1,5" points="602,-532 498,-532 498,-496 602,-496 602,-532"/>
<text text-anchor="middle" x="550" y="-509.9" font-family="Times Roman,serif" font-size="14.00">ypos&#45;cmd (0)</text>
</g>
<!-- axis.1.motor&#45;pos&#45;cmd&#45;&gt;ypos&#45;cmd -->
<g id="edge43" class="edge"><title>axis.1.motor&#45;pos&#45;cmd&#45;&gt;ypos&#45;cmd</title>
<path fill="none" stroke="darkblue" d="M423.002,-514C444.428,-514 467.177,-514 487.414,-514"/>
<polygon fill="darkblue" stroke="darkblue" points="487.437,-517.5 497.437,-514 487.436,-510.5 487.437,-517.5"/>
</g>
<!-- axis.1.motor&#45;pos&#45;fb -->
<g id="node27" class="node"><title>axis.1.motor&#45;pos&#45;fb</title>
<polygon fill="lightgrey" stroke="lightgrey" points="415,-478 267,-478 267,-442 415,-442 415,-478"/>
<text text-anchor="middle" x="341" y="-455.9" font-family="Times Roman,serif" font-size="14.00">axis.1.motor&#45;pos&#45;fb</text>
</g>
<!-- xenable&#45;&gt;stepgen.0.enable -->
<g id="edge9" class="edge"><title>xenable&#45;&gt;stepgen.0.enable</title>
<path fill="none" stroke="black" d="M402.576,-372C424.393,-372 449.231,-372 472.22,-372"/>
<polygon fill="black" stroke="black" points="472.288,-375.5 482.288,-372 472.288,-368.5 472.288,-375.5"/>
</g>
<!-- xpos&#45;cmd&#45;&gt;stepgen.0.position&#45;cmd -->
<g id="edge11" class="edge"><title>xpos&#45;cmd&#45;&gt;stepgen.0.position&#45;cmd</title>
<path fill="none" stroke="black" d="M393.74,-318C411.429,-318 431.767,-318 451.794,-318"/>
<polygon fill="black" stroke="black" points="451.905,-321.5 461.905,-318 451.905,-314.5 451.905,-321.5"/>
</g>
<!-- xpos&#45;fb&#45;&gt;axis.0.motor&#45;pos&#45;fb -->
<g id="edge13" class="edge"><title>xpos&#45;fb&#45;&gt;axis.0.motor&#45;pos&#45;fb</title>
<path fill="none" stroke="black" d="M716.856,-237.642C695.403,-236.209 669.393,-234.705 646,-234 560.705,-231.429 539.249,-230.202 454,-234 368.298,-237.818 270.665,-247.089 202.813,-254.322"/>
<polygon fill="black" stroke="black" points="202.174,-250.871 192.605,-255.419 202.922,-257.831 202.174,-250.871"/>
</g>
<!-- yenable&#45;&gt;stepgen.1.enable -->
<g id="edge15" class="edge"><title>yenable&#45;&gt;stepgen.1.enable</title>
<path fill="none" stroke="black" d="M612.175,-568C634.732,-568 660.502,-568 684.236,-568"/>
<polygon fill="black" stroke="black" points="684.268,-571.5 694.268,-568 684.268,-564.5 684.268,-571.5"/>
</g>
<!-- ypos&#45;cmd&#45;&gt;stepgen.1.position&#45;cmd -->
<g id="edge17" class="edge"><title>ypos&#45;cmd&#45;&gt;stepgen.1.position&#45;cmd</title>
<path fill="none" stroke="black" d="M602.677,-514C621.119,-514 642.474,-514 663.438,-514"/>
<polygon fill="black" stroke="black" points="663.684,-517.5 673.684,-514 663.684,-510.5 663.684,-517.5"/>
</g>
<!-- ypos&#45;fb&#45;&gt;axis.1.motor&#45;pos&#45;fb -->
<g id="edge19" class="edge"><title>ypos&#45;fb&#45;&gt;axis.1.motor&#45;pos&#45;fb</title>
<path fill="none" stroke="black" d="M163.127,-487.917C189.77,-483.736 224.362,-478.306 255.949,-473.349"/>
<polygon fill="black" stroke="black" points="256.749,-476.766 266.085,-471.758 255.663,-469.851 256.749,-476.766"/>
</g>
<!-- zenable&#45;&gt;stepgen.2.enable -->
<g id="edge21" class="edge"><title>zenable&#45;&gt;stepgen.2.enable</title>
<path fill="none" stroke="black" d="M403.141,-149C424.741,-149 449.247,-149 471.966,-149"/>
<polygon fill="black" stroke="black" points="472.262,-152.5 482.262,-149 472.262,-145.5 472.262,-152.5"/>
</g>
<!-- zpos&#45;cmd&#45;&gt;stepgen.2.position&#45;cmd -->
<g id="edge23" class="edge"><title>zpos&#45;cmd&#45;&gt;stepgen.2.position&#45;cmd</title>
<path fill="none" stroke="black" d="M393.74,-95C411.429,-95 431.767,-95 451.794,-95"/>
<polygon fill="black" stroke="black" points="451.905,-98.5001 461.905,-95 451.905,-91.5001 451.905,-98.5001"/>
</g>
<!-- zpos&#45;fb&#45;&gt;axis.2.motor&#45;pos&#45;fb -->
<g id="edge25" class="edge"><title>zpos&#45;fb&#45;&gt;axis.2.motor&#45;pos&#45;fb</title>
<path fill="none" stroke="black" d="M716.856,-14.642C695.403,-13.2085 669.393,-11.7052 646,-11 560.705,-8.4288 539.249,-7.20181 454,-11 368.298,-14.8184 270.665,-24.0891 202.813,-31.3225"/>
<polygon fill="black" stroke="black" points="202.174,-27.871 192.605,-32.4193 202.922,-34.8309 202.174,-27.871"/>
</g>
<!-- estop&#45;loop&#45;&gt;iocontrol.0.emc&#45;enable&#45;in -->
<g id="edge27" class="edge"><title>estop&#45;loop&#45;&gt;iocontrol.0.emc&#45;enable&#45;in</title>
<path fill="none" stroke="black" d="M270.26,-691.565C255.479,-693.355 239.589,-695.278 223.85,-697.184"/>
<polygon fill="black" stroke="black" points="223.049,-693.755 213.543,-698.432 223.891,-700.705 223.049,-693.755"/>
</g>
</g>
</svg>
